{
  "accessors": [
    {
      "bufferView": 2,
      "componentType": 5126,
      "count": 953,
      "max": [
        0.018154600635170937,
        1.0,
        0.027452100068330765
      ],
      "min": [
        -0.018154600635170937,
        0.5282800197601318,
        -0.027452100068330765
      ],
      "type": "VEC3"
    },
    {
      "bufferView": 2,
      "byteOffset": 11436,
      "componentType": 5126,
      "count": 953,
      "max": [
        0.9994485378265381,
        1.0,
        0.9994485378265381
      ],
      "min": [
        -0.9994485378265381,
        -0.9466218948364258,
        -0.9994486570358276
      ],
      "type": "VEC3"
    },
    {
      "bufferView": 3,
      "componentType": 5126,
      "count": 953,
      "max": [
        1.0,
        0.9994480013847351,
        1.0,
        1.0
      ],
      "min": [
        -0.9987069964408875,
        -1.0,
        -1.0,
        -1.0
      ],
      "type": "VEC4"
    },
    {
      "bufferView": 1,
      "componentType": 5126,
      "count": 953,
      "max": [
        0.6451939940452576,
        0.670831024646759
      ],
      "min": [
        0.14469100534915924,
        0.00012573700223583728
      ],
      "type": "VEC2"
    },
    {
      "bufferView": 0,
      "componentType": 5125,
      "count": 3510,
      "type": "SCALAR"
    },
    {
      "bufferView": 2,
      "byteOffset": 22872,
      "componentType": 5126,
      "count": 223,
      "max": [
        0.013183900155127048,
        0.6498960256576538,
        0.013239099644124508
      ],
      "min": [
        -0.013293599709868431,
        -1.0,
        -0.013238700106739998
      ],
      "type": "VEC3"
    },
    {
      "bufferView": 2,
      "byteOffset": 25548,
      "componentType": 5126,
      "count": 223,
      "max": [
        0.9998936653137207,
        0.8568398356437683,
        0.9998936653137207
      ],
      "min": [
        -0.9998936653137207,
        -0.8116598725318909,
        -0.9998936653137207
      ],
      "type": "VEC3"
    },
    {
      "bufferView": 3,
      "byteOffset": 15248,
      "componentType": 5126,
      "count": 223,
      "max": [
        0.9999619722366333,
        0.6581329703330994,
        1.0,
        1.0
      ],
      "min": [
        -1.0,
        -0.6581360101699829,
        -0.999879002571106,
        1.0
      ],
      "type": "VEC4"
    },
    {
      "bufferView": 1,
      "byteOffset": 7624,
      "componentType": 5126,
      "count": 223,
      "max": [
        0.34237098693847656,
        0.9998739957809448
      ],
      "min": [
        0.0017785700038075447,
        0.00012573700223583728
      ],
      "type": "VEC2"
    },
    {
      "bufferView": 0,
      "byteOffset": 14040,
      "componentType": 5125,
      "count": 852,
      "type": "SCALAR"
    },
    {
      "bufferView": 2,
      "byteOffset": 28224,
      "componentType": 5126,
      "count": 451,
      "max": [
        0.015096900053322315,
        0.3962309956550598,
        0.015151799656450748
      ],
      "min": [
        -0.015206599608063698,
        0.24979400634765625,
        -0.015151700004935265
      ],
      "type": "VEC3"
    },
    {
      "bufferView": 2,
      "byteOffset": 33636,
      "componentType": 5126,
      "count": 451,
      "max": [
        0.9999681115150452,
        0.9999973773956299,
        0.9999681115150452
      ],
      "min": [
        -0.9999681115150452,
        -0.9995222091674805,
        -0.9999681115150452
      ],
      "type": "VEC3"
    },
    {
      "bufferView": 3,
      "byteOffset": 18816,
      "componentType": 5126,
      "count": 451,
      "max": [
        0.9999819993972778,
        0.1595340073108673,
        1.0,
        1.0
      ],
      "min": [
        -0.9999930262565613,
        -0.15448999404907227,
        -0.9999979734420776,
        1.0
      ],
      "type": "VEC4"
    },
    {
      "bufferView": 1,
      "byteOffset": 9408,
      "componentType": 5126,
      "count": 451,
      "max": [
        0.1444389969110489,
        0.6652489900588989
      ],
      "min": [
        0.00012573700223583728,
        0.4222950041294098
      ],
      "type": "VEC2"
    },
    {
      "bufferView": 0,
      "byteOffset": 17448,
      "componentType": 5125,
      "count": 2448,
      "type": "SCALAR"
    }
  ],
  "asset": {
    "extras": {
      "author": "iedalton (https://sketchfab.com/iedalton)",
      "license": "CC-BY-4.0 (http://creativecommons.org/licenses/by/4.0/)",
      "source": "https://sketchfab.com/3d-models/medieval-spear-f61070945153418fa11c4abae286b292",
      "title": "Medieval Spear"
    },
    "generator": "Sketchfab-12.67.0",
    "version": "2.0"
  },
  "bufferViews": [
    {
      "buffer": 0,
      "byteLength": 27240,
      "name": "floatBufferViews",
      "target": 34963
    },
    {
      "buffer": 0,
      "byteLength": 13016,
      "byteOffset": 27240,
      "byteStride": 8,
      "name": "floatBufferViews",
      "target": 34962
    },
    {
      "buffer": 0,
      "byteLength": 39048,
      "byteOffset": 40256,
      "byteStride": 12,
      "name": "floatBufferViews",
      "target": 34962
    },
    {
      "buffer": 0,
      "byteLength": 26032,
      "byteOffset": 79304,
      "byteStride": 16,
      "name": "floatBufferViews",
      "target": 34962
    }
  ],
  "buffers": [
    {
      "byteLength": 105336,
      "uri": "scene.bin"
    }
  ],
  "images": [
    {
      "uri": "textures/Leather_baseColor.jpeg"
    },
    {
      "uri": "textures/Leather_metallicRoughness.png"
    },
    {
      "uri": "textures/Leather_normal.png"
    },
    {
      "uri": "textures/Wood_baseColor.jpeg"
    },
    {
      "uri": "textures/Wood_metallicRoughness.png"
    },
    {
      "uri": "textures/Wood_normal.png"
    },
    {
      "uri": "textures/Steel_baseColor.jpeg"
    },
    {
      "uri": "textures/Steel_metallicRoughness.png"
    },
    {
      "uri": "textures/Steel_normal.png"
    }
  ],
  "materials": [
    {
      "doubleSided": true,
      "name": "Leather",
      "normalTexture": {
        "index": 2
      },
      "occlusionTexture": {
        "index": 1
      },
      "pbrMetallicRoughness": {
        "baseColorTexture": {
          "index": 0
        },
        "metallicRoughnessTexture": {
          "index": 1
        }
      }
    },
    {
      "doubleSided": true,
      "name": "Wood",
      "normalTexture": {
        "index": 5
      },
      "occlusionTexture": {
        "index": 4
      },
      "pbrMetallicRoughness": {
        "baseColorTexture": {
          "index": 3
        },
        "metallicRoughnessTexture": {
          "index": 4
        }
      }
    },
    {
      "doubleSided": true,
      "name": "Steel",
      "normalTexture": {
        "index": 8
      },
      "occlusionTexture": {
        "index": 7
      },
      "pbrMetallicRoughness": {
        "baseColorTexture": {
          "index": 6
        },
        "metallicRoughnessTexture": {
          "index": 7
        }
      }
    }
  ],
  "meshes": [
    {
      "name": "defaultMaterial",
      "primitives": [
        {
          "attributes": {
            "NORMAL": 1,
            "POSITION": 0,
            "TANGENT": 2,
            "TEXCOORD_0": 3
          },
          "indices": 4,
          "material": 2,
          "mode": 4
        }
      ]
    },
    {
      "name": "defaultMaterial",
      "primitives": [
        {
          "attributes": {
            "NORMAL": 6,
            "POSITION": 5,
            "TANGENT": 7,
            "TEXCOORD_0": 8
          },
          "indices": 9,
          "material": 1,
          "mode": 4
        }
      ]
    },
    {
      "name": "defaultMaterial",
      "primitives": [
        {
          "attributes": {
            "NORMAL": 11,
            "POSITION": 10,
            "TANGENT": 12,
            "TEXCOORD_0": 13
          },
          "indices": 14,
          "material": 0,
          "mode": 4
        }
      ]
    }
  ],
  "nodes": [
    {
      "children": [
        1
      ],
      "matrix": [
        0.6561499238014221,
        0.5825259089469911,
        -0.47971948981285084,
        0.0,
        -0.7546305656433105,
        0.5065052509307862,
        -0.41711527109146107,
        0.0,
        0.0,
        0.6357011198997495,
        0.7719352841377259,
        0.0,
        1.3858989511561504e-08,
        4.904026695840006e-08,
        -1.3522199537874258e-07,
        1.0
      ],
      "name": "Sketchfab_model"
    },
    {
      "children": [
        2,
        4,
        6
      ],
      "matrix": [
        1.0,
        0.0,
        0.0,
        0.0,
        0.0,
        -4.371139006309477e-08,
        0.999999999999999,
        0.0,
        0.0,
        -0.999999999999999,
        -4.371139006309477e-08,
        0.0,
        0.0,
        0.0,
        0.0,
        1.0
      ],
      "name": "Collada visual scene group"
    },
    {
      "children": [
        3
      ],
      "name": "Cylinder"
    },
    {
      "mesh": 0,
      "name": "defaultMaterial"
    },
    {
      "children": [
        5
      ],
      "name": "Cylinder"
    },
    {
      "mesh": 1,
      "name": "defaultMaterial"
    },
    {
      "children": [
        7
      ],
      "name": "Cylinder"
    },
    {
      "mesh": 2,
      "name": "defaultMaterial"
    }
  ],
  "samplers": [
    {
      "magFilter": 9729,
      "minFilter": 9987,
      "wrapS": 10497,
      "wrapT": 10497
    }
  ],
  "scene": 0,
  "scenes": [
    {
      "name": "Sketchfab_Scene",
      "nodes": [
        0
      ]
    }
  ],
  "textures": [
    {
      "sampler": 0,
      "source": 0
    },
    {
      "sampler": 0,
      "source": 1
    },
    {
      "sampler": 0,
      "source": 2
    },
    {
      "sampler": 0,
      "source": 3
    },
    {
      "sampler": 0,
      "source": 4
    },
    {
      "sampler": 0,
      "source": 5
    },
    {
      "sampler": 0,
      "source": 6
    },
    {
      "sampler": 0,
      "source": 7
    },
    {
      "sampler": 0,
      "source": 8
    }
  ]
}
